<svg
   xmlns="http://www.w3.org/2000/svg"
   viewBox="0 0 16 16">
  <path
     id="rect923-4"
     d="M 11.691406 2.6328125 L 10.664062 3.8984375 C 10.664062 3.8984375 12.683594 5.5838839 12.683594 7.9667969 C 12.683594 8.9473053 12.311476 9.7967054 11.876953 10.46875 L 10.644531 9.3808594 C 10.800909 8.9979199 10.916016 8.5478845 10.916016 8.0195312 C 10.916016 6.2189677 9.6601563 5.1933594 9.6601562 5.1933594 L 9.3007812 5.65625 L 9.3007812 8.1933594 L 7.6914062 6.7714844 L 7.6914062 3.5527344 L 5.8535156 5.1484375 L 3.0566406 2.6777344 L 2.0625 3.8027344 L 4.7050781 6.1367188 L 7.6914062 8.7753906 L 9.3007812 10.197266 L 9.8066406 10.642578 L 10.929688 11.634766 L 12.085938 12.65625 L 13.542969 13.943359 L 14.535156 12.818359 L 12.996094 11.458984 C 13.583469 10.544095 14.113281 9.3540668 14.113281 7.9667969 C 14.113281 4.8261936 11.691406 2.6328125 11.691406 2.6328125 z M 1.7441406 6.1367188 L 1.7441406 9.859375 L 4.7167969 9.859375 L 7.6914062 12.443359 L 7.6914062 10.216797 L 3.0722656 6.1367188 L 1.7441406 6.1367188 z " />
  <g
     id="path2804"
     transform="translate(-0.494961,0.561213)">
    <path
       d="M 2.5278811,3.6579925 14.007435,13.799257"
       id="path2808" />
  </g>
  <g
     id="g2816"
     transform="translate(0.03124978,-0.41807288)">
    <path
       d="M 2.5278811,3.6579925 14.007435,13.799257"
       id="path2812" />
  </g>
</svg>
